<svg viewBox="0 0 256 256" fill="none" xmlns="http://www.w3.org/2000/svg">
    <symbol id="icon-magnifying-glass" viewBox="0 0 256 256" fill="currentColor">
        <path d="M228.24,219.76l-51.38-51.38a86.15,86.15,0,1,0-8.48,8.48l51.38,51.38a6,6,0,0,0,8.48-8.48ZM38,112a74,74,0,1,1,74,74A74.09,74.09,0,0,1,38,112Z"></path>
    </symbol>
    <symbol id="icon-user" viewBox="0 0 256 256" fill="currentColor">
        <path d="M229.19,213c-15.81-27.32-40.63-46.49-69.47-54.62a70,70,0,1,0-63.44,0C67.44,166.5,42.62,185.67,26.81,213a6,6,0,1,0,10.38,6C56.4,185.81,90.34,166,128,166s71.6,19.81,90.81,53a6,6,0,1,0,10.38-6ZM70,96a58,58,0,1,1,58,58A58.07,58.07,0,0,1,70,96Z"></path>
    </symbol>
    <symbol id="icon-user-new" viewBox="0 0 256 256" fill="currentColor" xmlns="http://www.w3.org/2000/svg">
        <path d="M11.9131 12.9319C11.9379 12.9319 11.9628 12.9319 11.9926 12.9319C12.0026 12.9319 12.0125 12.9319 12.0224 12.9319C12.0373 12.9319 12.0572 12.9319 12.0721 12.9319C13.5283 12.907 14.7062 12.3951 15.576 11.416C17.4894 9.25906 17.1713 5.5614 17.1365 5.20853C17.0123 2.55954 15.7599 1.29219 14.7261 0.700766C13.9558 0.258439 13.0562 0.0198799 12.0523 0H12.0175C12.0125 0 12.0026 0 11.9976 0H11.9678C11.4161 0 10.3326 0.0894595 9.29392 0.680886C8.25022 1.27231 6.97791 2.53966 6.85366 5.20853C6.81887 5.5614 6.50079 9.25906 8.41423 11.416C9.27901 12.3951 10.4569 12.907 11.9131 12.9319ZM8.18064 5.33278C8.18064 5.31787 8.18561 5.30296 8.18561 5.29302C8.34962 1.72955 10.8793 1.34686 11.9628 1.34686H11.9827C11.9926 1.34686 12.0075 1.34686 12.0224 1.34686C13.3643 1.37668 15.6455 1.92338 15.7996 5.29302C15.7996 5.30793 15.7996 5.32284 15.8046 5.33278C15.8096 5.36757 16.1574 8.74715 14.577 10.5264C13.9508 11.2321 13.1158 11.58 12.0175 11.59C12.0075 11.59 12.0026 11.59 11.9926 11.59C11.9827 11.59 11.9777 11.59 11.9678 11.59C10.8744 11.58 10.0344 11.2321 9.4132 10.5264C7.83772 8.75709 8.17567 5.3626 8.18064 5.33278Z" fill="black"></path>
        <path d="M22.2058 19.0647C22.2058 19.0598 22.2058 19.0548 22.2058 19.0498C22.2058 19.0101 22.2008 18.9703 22.2008 18.9256C22.171 17.9415 22.1064 15.6404 19.9494 14.9049C19.9345 14.8999 19.9146 14.8949 19.8997 14.89C17.6582 14.3184 15.7945 13.0262 15.7746 13.0113C15.4714 12.7976 15.054 12.8721 14.8403 13.1753C14.6265 13.4785 14.7011 13.896 15.0043 14.1097C15.0888 14.1693 17.0668 15.546 19.5419 16.1822C20.6999 16.5947 20.8291 17.8322 20.8639 18.9653C20.8639 19.0101 20.8639 19.0498 20.8688 19.0896C20.8738 19.5369 20.844 20.2277 20.7645 20.6253C19.9593 21.0826 16.8034 22.663 12.0024 22.663C7.22129 22.663 4.04547 21.0776 3.23537 20.6203C3.15585 20.2227 3.12106 19.5319 3.131 19.0846C3.131 19.0449 3.13597 19.0051 3.13597 18.9604C3.17076 17.8272 3.29998 16.5897 4.45798 16.1772C6.93303 15.541 8.91108 14.1594 8.99557 14.1047C9.29874 13.891 9.37329 13.4735 9.15958 13.1703C8.94587 12.8672 8.52839 12.7926 8.22522 13.0063C8.20534 13.0212 6.35154 14.3134 4.10014 14.885C4.08026 14.89 4.06536 14.8949 4.05045 14.8999C1.89348 15.6404 1.82887 17.9415 1.79905 18.9206C1.79905 18.9653 1.79905 19.0051 1.79408 19.0449C1.79408 19.0498 1.79408 19.0548 1.79408 19.0598C1.78911 19.3182 1.78414 20.6452 2.04755 21.3112C2.09725 21.4404 2.18671 21.5497 2.30598 21.6243C2.45508 21.7237 6.02849 23.9999 12.0074 23.9999C17.9862 23.9999 21.5597 21.7187 21.7088 21.6243C21.8231 21.5497 21.9175 21.4404 21.9672 21.3112C22.2157 20.6502 22.2107 19.3232 22.2058 19.0647Z" fill="black"></path>
    </symbol>
    <symbol id="icon-bag" viewBox="0 0 256 256" fill="currentColor">
        <path d="M237.9,198.36l-14.25-120a14.06,14.06,0,0,0-14-12.36H174V64a46,46,0,0,0-92,0v2H46.33a14.06,14.06,0,0,0-14,12.36l-14.25,120a14,14,0,0,0,14,15.64H223.92a14,14,0,0,0,14-15.64ZM94,64a34,34,0,0,1,68,0v2H94ZM225.5,201.3a2.07,2.07,0,0,1-1.58.7H32.08a2.07,2.07,0,0,1-1.58-.7,1.92,1.92,0,0,1-.49-1.53l14.26-120A2,2,0,0,1,46.33,78H82v26a6,6,0,0,0,12,0V78h68v26a6,6,0,0,0,12,0V78h35.67a2,2,0,0,1,2.06,1.77l14.26,120A1.92,1.92,0,0,1,225.5,201.3Z"></path>
    </symbol>
    <symbol id="icon-heart" viewBox="0 0 256 256" fill="currentColor">
        <path d="M178,34c-21,0-39.26,9.47-50,25.34C117.26,43.47,99,34,78,34A60.07,60.07,0,0,0,18,94c0,29.2,18.2,59.59,54.1,90.31a334.68,334.68,0,0,0,53.06,37,6,6,0,0,0,5.68,0,334.68,334.68,0,0,0,53.06-37C219.8,153.59,238,123.2,238,94A60.07,60.07,0,0,0,178,34ZM128,209.11C111.59,199.64,30,149.72,30,94A48.05,48.05,0,0,1,78,46c20.28,0,37.31,10.83,44.45,28.27a6,6,0,0,0,11.1,0C140.69,56.83,157.72,46,178,46a48.05,48.05,0,0,1,48,48C226,149.72,144.41,199.64,128,209.11Z"></path>
    </symbol>
    <symbol id="icon-heart-fill" viewBox="0 0 256 256" fill="currentColor">
        <path d="M178 34C157 34 138.74 43.47 128 59.34C117.26 43.47 99 34 78 34C62.0927 34.0185 46.8422 40.3459 35.5941 51.5941C24.3459 62.8422 18.0185 78.0927 18 94C18 123.2 36.2 153.59 72.1 184.31C88.5505 198.328 106.32 210.719 125.16 221.31C126.033 221.779 127.009 222.025 128 222.025C128.991 222.025 129.967 221.779 130.84 221.31C149.68 210.719 167.449 198.328 183.9 184.31C219.8 153.59 238 123.2 238 94C237.981 78.0927 231.654 62.8422 220.406 51.5941C209.158 40.3459 193.907 34.0185 178 34ZM128 209.11C111.59 199.64 30 149.72 30 94C30.0132 81.2737 35.0746 69.0724 44.0735 60.0735C53.0724 51.0746 65.2737 46.0132 78 46C98.28 46 115.31 56.83 122.45 74.27C122.902 75.3705 123.671 76.3117 124.659 76.9741C125.647 77.6365 126.81 77.9902 128 77.9902C129.19 77.9902 130.353 77.6365 131.341 76.9741C132.329 76.3117 133.098 75.3705 133.55 74.27C140.69 56.83 157.72 46 178 46C190.726 46.0132 202.928 51.0746 211.927 60.0735C220.925 69.0724 225.987 81.2737 226 94C226 149.72 144.41 199.64 128 209.11Z"/>
        <path d="M108 48L128 72L152 48L192 40L224 68L232 96L224 128L180 180L128 216L76 180L32 128L24 96L32 68L68 40L108 48Z"/>
    </symbol>
    <symbol id="icon-x" viewBox="0 0 256 256" fill="currentColor">
        <path d="M204.24,195.76a6,6,0,1,1-8.48,8.48L128,136.49,60.24,204.24a6,6,0,0,1-8.48-8.48L119.51,128,51.76,60.24a6,6,0,0,1,8.48-8.48L128,119.51l67.76-67.75a6,6,0,0,1,8.48,8.48L136.49,128Z"></path>
    </symbol>
    <symbol id="icon-rows" viewBox="0 0 256 256" fill="currentColor">
        <path d="M208,138H48a14,14,0,0,0-14,14v40a14,14,0,0,0,14,14H208a14,14,0,0,0,14-14V152A14,14,0,0,0,208,138Zm2,54a2,2,0,0,1-2,2H48a2,2,0,0,1-2-2V152a2,2,0,0,1,2-2H208a2,2,0,0,1,2,2ZM208,50H48A14,14,0,0,0,34,64v40a14,14,0,0,0,14,14H208a14,14,0,0,0,14-14V64A14,14,0,0,0,208,50Zm2,54a2,2,0,0,1-2,2H48a2,2,0,0,1-2-2V64a2,2,0,0,1,2-2H208a2,2,0,0,1,2,2Z"></path>
    </symbol>
    <symbol id="icon-cols" viewBox="0 0 256 256" fill="currentColor">
        <path d="M104,34H64A14,14,0,0,0,50,48V208a14,14,0,0,0,14,14h40a14,14,0,0,0,14-14V48A14,14,0,0,0,104,34Zm2,174a2,2,0,0,1-2,2H64a2,2,0,0,1-2-2V48a2,2,0,0,1,2-2h40a2,2,0,0,1,2,2ZM192,34H152a14,14,0,0,0-14,14V208a14,14,0,0,0,14,14h40a14,14,0,0,0,14-14V48A14,14,0,0,0,192,34Zm2,174a2,2,0,0,1-2,2H152a2,2,0,0,1-2-2V48a2,2,0,0,1,2-2h40a2,2,0,0,1,2,2Z"></path>
    </symbol>
    <symbol id="icon-caret" viewBox="0 0 256 256" fill="currentColor">
        <path d="M212.24,100.24l-80,80a6,6,0,0,1-8.48,0l-80-80a6,6,0,0,1,8.48-8.48L128,167.51l75.76-75.75a6,6,0,0,1,8.48,8.48Z"></path>
    </symbol>
    <symbol id="icon-check" viewBox="0 0 256 256" fill="currentColor">
        <path d="M228.24,76.24l-128,128a6,6,0,0,1-8.48,0l-56-56a6,6,0,0,1,8.48-8.48L96,191.51,219.76,67.76a6,6,0,0,1,8.48,8.48Z"></path>
    </symbol>
    <symbol id="icon-phone" viewBox="0 0 256 256" fill="currentColor">
        <path d="M221.59,160.3l-47.24-21.17a14,14,0,0,0-13.28,1.22,4.81,4.81,0,0,0-.56.42l-24.69,21a1.88,1.88,0,0,1-1.68.06c-15.87-7.66-32.31-24-40-39.65a1.91,1.91,0,0,1,0-1.68l21.07-25a6.13,6.13,0,0,0,.42-.58,14,14,0,0,0,1.12-13.27L95.73,34.49a14,14,0,0,0-14.56-8.38A54.24,54.24,0,0,0,34,80c0,78.3,63.7,142,142,142a54.25,54.25,0,0,0,53.89-47.17A14,14,0,0,0,221.59,160.3ZM176,210C104.32,210,46,151.68,46,80A42.23,42.23,0,0,1,82.67,38h.23a2,2,0,0,1,1.84,1.31l21.1,47.11a2,2,0,0,1,0,1.67L84.73,113.15a4.73,4.73,0,0,0-.43.57,14,14,0,0,0-.91,13.73c8.87,18.16,27.17,36.32,45.53,45.19a14,14,0,0,0,13.77-1c.19-.13.38-.27.56-.42l24.68-21a1.92,1.92,0,0,1,1.6-.1l47.25,21.17a2,2,0,0,1,1.21,2A42.24,42.24,0,0,1,176,210Z"></path>
    </symbol>
    <symbol id="icon-arrow" viewBox="0 0 256 256" fill="currentColor">
        <path d="M204.24,148.24l-72,72a6,6,0,0,1-8.48,0l-72-72a6,6,0,0,1,8.48-8.48L122,201.51V40a6,6,0,0,1,12,0V201.51l61.76-61.75a6,6,0,0,1,8.48,8.48Z"></path>
    </symbol>
    <symbol id="icon-hanger" viewBox="0 0 256 256" fill="currentColor">
        <path d="M240.37,172.8,138,96l25.59-19.2A6,6,0,0,0,166,72a38,38,0,1,0-76,0,6,6,0,0,0,12,0,26,26,0,0,1,51.82-2.88l-29.32,22-.21.16L15.63,172.8A14,14,0,0,0,24,198H232a14,14,0,0,0,8.39-25.2Zm-6.5,11.83A1.85,1.85,0,0,1,232,186H24a2,2,0,0,1-1.19-3.6L128,103.5l105.17,78.9A1.85,1.85,0,0,1,233.87,184.63Z"></path>
    </symbol>
    <symbol id="icon-ruler" viewBox="0 0 256 256" fill="currentColor">
        <path d="M233.91,74.79,181.22,22.1a14,14,0,0,0-19.8,0L22.09,161.41a14,14,0,0,0,0,19.8L74.78,233.9a14,14,0,0,0,19.8,0L233.91,94.59A14,14,0,0,0,233.91,74.79ZM225.42,86.1,86.1,225.41h0a2,2,0,0,1-2.83,0L30.58,172.73a2,2,0,0,1,0-2.83L64,136.48l27.76,27.76a6,6,0,1,0,8.48-8.48L72.48,128,96,104.48l27.76,27.76a6,6,0,0,0,8.48-8.48L104.48,96,128,72.49l27.76,27.75a6,6,0,0,0,8.48-8.48L136.49,64,169.9,30.59a2,2,0,0,1,2.83,0l52.69,52.68A2,2,0,0,1,225.42,86.1Z"></path>
    </symbol>
    <symbol id="icon-map-pin" viewBox="0 0 256 256" fill="currentColor">
        <path d="M128,66a38,38,0,1,0,38,38A38,38,0,0,0,128,66Zm0,64a26,26,0,1,1,26-26A26,26,0,0,1,128,130Zm0-112a86.1,86.1,0,0,0-86,86c0,30.91,14.34,63.74,41.47,94.94a252.32,252.32,0,0,0,41.09,38,6,6,0,0,0,6.88,0,252.32,252.32,0,0,0,41.09-38c27.13-31.2,41.47-64,41.47-94.94A86.1,86.1,0,0,0,128,18Zm0,206.51C113,212.93,54,163.62,54,104a74,74,0,0,1,148,0C202,163.62,143,212.93,128,224.51Z"></path>
    </symbol>
    <symbol id="icon-cursor-click" viewBox="0 0 256 256" fill="currentColor">
        <path d="M168.23,135.75a2,2,0,0,1-.55-1.79,1.92,1.92,0,0,1,1.17-1.46L213.61,113A14,14,0,0,0,212.38,87L52.3,34.7A14,14,0,0,0,34.7,52.3L87,212.38A13.85,13.85,0,0,0,99.58,222c.23,0,.45,0,.68,0A13.85,13.85,0,0,0,113,213.61h0l19.46-44.76a1.92,1.92,0,0,1,1.46-1.17,2,2,0,0,1,1.79.55l49.66,49.67a14,14,0,0,0,19.8,0l12.69-12.69a14,14,0,0,0,0-19.8Zm41.18,61-12.68,12.68a2,2,0,0,1-2.83,0l-49.67-49.66a14,14,0,0,0-22.74,4.31L102,208.82a1.81,1.81,0,0,1-1.88,1.18,1.84,1.84,0,0,1-1.77-1.35L46.11,48.58A2,2,0,0,1,47.93,46a2.33,2.33,0,0,1,.65.11L208.65,98.38a1.84,1.84,0,0,1,1.35,1.77,1.82,1.82,0,0,1-1.18,1.88l-44.76,19.46a14,14,0,0,0-4.31,22.74l49.66,49.67A2,2,0,0,1,209.41,196.73ZM90,24V16a6,6,0,0,1,12,0v8a6,6,0,0,1-12,0ZM10,96a6,6,0,0,1,6-6h8a6,6,0,0,1,0,12H16A6,6,0,0,1,10,96ZM122.63,29.32l8-16a6,6,0,0,1,10.74,5.37l-8,16a6,6,0,1,1-10.74-5.36Zm-85.26,96a6,6,0,0,1-2.69,8.05l-16,8a6,6,0,0,1-5.36-10.74l16-8A6,6,0,0,1,37.37,125.32Z"></path>
    </symbol>
    <symbol id="icon-bell" viewBox="0 0 256 256" fill="currentColor">
        <path d="M220.07,176.94C214.41,167.2,206,139.73,206,104a78,78,0,1,0-156,0c0,35.74-8.42,63.2-14.08,72.94A14,14,0,0,0,48,198H90.48a38,38,0,0,0,75,0H208a14,14,0,0,0,12.06-21.06ZM128,218a26,26,0,0,1-25.29-20h50.58A26,26,0,0,1,128,218Zm81.71-33a1.9,1.9,0,0,1-1.7,1H48a1.9,1.9,0,0,1-1.7-1,2,2,0,0,1,0-2C53.87,170,62,139.69,62,104a66,66,0,1,1,132,0c0,35.68,8.14,65.95,15.71,79A2,2,0,0,1,209.71,185Z"></path>
    </symbol>
    <symbol id="icon-check-circle" viewBox="0 0 256 256" fill="currentColor">
        <path d="M172.24,99.76a6,6,0,0,1,0,8.48l-56,56a6,6,0,0,1-8.48,0l-24-24a6,6,0,0,1,8.48-8.48L112,151.51l51.76-51.75A6,6,0,0,1,172.24,99.76ZM230,128A102,102,0,1,1,128,26,102.12,102.12,0,0,1,230,128Zm-12,0a90,90,0,1,0-90,90A90.1,90.1,0,0,0,218,128Z"></path>
    </symbol>
    <symbol id="icon-x-circle" viewBox="0 0 256 256" fill="currentColor">
        <path d="M164.24,100.24,136.48,128l27.76,27.76a6,6,0,1,1-8.48,8.48L128,136.48l-27.76,27.76a6,6,0,0,1-8.48-8.48L119.52,128,91.76,100.24a6,6,0,0,1,8.48-8.48L128,119.52l27.76-27.76a6,6,0,0,1,8.48,8.48ZM230,128A102,102,0,1,1,128,26,102.12,102.12,0,0,1,230,128Zm-12,0a90,90,0,1,0-90,90A90.1,90.1,0,0,0,218,128Z"></path>
    </symbol>
    <symbol id="icon-warning" viewBox="0 0 256 256" fill="currentColor">
        <path d="M235.07,189.09,147.61,37.22h0a22.75,22.75,0,0,0-39.22,0L20.93,189.09a21.53,21.53,0,0,0,0,21.72A22.35,22.35,0,0,0,40.55,222h174.9a22.35,22.35,0,0,0,19.6-11.19A21.53,21.53,0,0,0,235.07,189.09ZM224.66,204.8a10.46,10.46,0,0,1-9.21,5.2H40.55a10.46,10.46,0,0,1-9.21-5.2,9.51,9.51,0,0,1,0-9.72L118.79,43.21a10.75,10.75,0,0,1,18.42,0l87.46,151.87A9.51,9.51,0,0,1,224.66,204.8ZM122,144V104a6,6,0,0,1,12,0v40a6,6,0,0,1-12,0Zm16,36a10,10,0,1,1-10-10A10,10,0,0,1,138,180Z"></path>
    </symbol>
    <symbol id="icon-vk" viewBox="0 0 256 256" fill="none">
        <path fill-rule="evenodd" clip-rule="evenodd" d="M250.282 61.2937C252.049 55.3783 250.282 51 241.832 51H213.792C206.648 51 203.422 54.7638 201.577 58.9125C201.577 58.9125 187.365 93.6351 167.162 116.22C160.632 122.75 157.636 124.824 154.102 124.824C152.336 124.824 149.647 122.75 149.647 116.835V61.3705C149.647 54.2261 147.65 51.0768 141.735 51.0768H97.7161C93.261 51.0768 90.5718 54.3798 90.5718 57.5299C90.5718 64.2902 100.635 65.8264 101.711 84.8016V126.055C101.711 135.119 100.098 136.733 96.4871 136.733C86.9615 136.733 63.9153 101.857 50.1643 61.9098C47.4758 54.1509 44.7866 51.0008 37.6422 51.0008H9.60239C1.61307 51.0008 0 54.7646 0 58.9133C0 66.3649 9.52558 103.162 44.2489 151.789C67.3719 185.053 100.021 203.029 129.673 203.029C147.496 203.029 149.647 199.035 149.647 192.12V167C149.647 159.011 151.337 157.398 156.945 157.398C161.093 157.398 168.238 159.471 184.831 175.527C203.806 194.501 206.956 203.029 217.634 203.029H245.673C253.663 203.029 257.658 199.035 255.353 191.122C252.818 183.286 243.752 171.84 231.692 158.319C225.162 150.637 215.406 142.264 212.41 138.115C208.262 132.737 209.415 130.433 212.41 125.67C212.41 125.67 246.518 77.5804 250.129 61.2945H250.283L250.282 61.2937Z" fill="#07f"/>
    </symbol>
    <symbol id="icon-google" viewBox="0 0 256 256" fill-rule="nonzero">
        <g fill="#4285f4" fill-rule="nonzero" stroke="none" stroke-width="1" stroke-linecap="butt" stroke-linejoin="miter" stroke-miterlimit="10" stroke-dasharray="" stroke-dashoffset="0" font-family="none" font-weight="none" font-size="none" text-anchor="none" style="mix-blend-mode: normal">
            <g transform="scale(8.53333,8.53333)">
                <path d="M15.00391,3c-6.629,0 -12.00391,5.373 -12.00391,12c0,6.627 5.37491,12 12.00391,12c10.01,0 12.26517,-9.293 11.32617,-14h-1.33008h-2.26758h-7.73242v4h7.73828c-0.88958,3.44825 -4.01233,6 -7.73828,6c-4.418,0 -8,-3.582 -8,-8c0,-4.418 3.582,-8 8,-8c2.009,0 3.83914,0.74575 5.24414,1.96875l2.8418,-2.83984c-2.134,-1.944 -4.96903,-3.12891 -8.08203,-3.12891z"></path>
            </g>
        </g>
    </symbol>
    <symbol id="icon-yandex" viewBox="0 0 256 256"  fill-rule="nonzero">
        <g fill="#ff0000" fill-rule="nonzero" stroke="none" stroke-width="1" stroke-linecap="butt" stroke-linejoin="miter" stroke-miterlimit="10" stroke-dasharray="" stroke-dashoffset="0" font-family="none" font-weight="none" font-size="none" text-anchor="none" style="mix-blend-mode: normal">
            <g transform="scale(8,8)">
                <path d="M20.80078,1l-5.60156,16.19922l-5,-13.19922h-3.19922l7,18.59961v8.40039h3v-9.90039l7,-20.09961z"></path>
            </g>
        </g>
    </symbol>
    <symbol id="icon-mailru" viewBox="0 0 256 256">
        <circle cx="128" cy="128" fill="none" r="40" stroke="#fda840" stroke-linecap="round" stroke-linejoin="round" stroke-width="24"></circle>
        <path d="M181.1,208A96,96,0,1,1,224,128c0,22.1-8,40-28,40s-28-17.9-28-40V88" fill="none" stroke="#fda840" stroke-linecap="round" stroke-linejoin="round" stroke-width="24"></path>
    </symbol>
    <svg id="icon-telegram" viewBox="0 0 256 256" fill="none">
        <g clip-path="url(#clip0_5_2)">
            <path fill-rule="evenodd" clip-rule="evenodd" d="M196.096 242.976C199.531 245.408 203.957 246.016 207.904 244.523C211.851 243.019 214.752 239.648 215.627 235.563C224.896 192 247.381 81.7387 255.819 42.112C256.459 39.1253 255.392 36.0213 253.045 34.0267C250.699 32.032 247.445 31.456 244.544 32.5333C199.819 49.088 62.08 100.768 5.78134 121.6C2.208 122.923 -0.117332 126.357 1.82986e-06 130.123C0.128002 133.899 2.66667 137.173 6.32534 138.272C31.5733 145.824 64.7147 156.331 64.7147 156.331C64.7147 156.331 80.2027 203.104 88.2773 226.891C89.2907 229.877 91.6267 232.224 94.7093 233.035C97.7813 233.835 101.067 232.992 103.36 230.827C116.331 218.581 136.384 199.648 136.384 199.648C136.384 199.648 174.485 227.584 196.096 242.976ZM78.656 150.421L96.5653 209.493L100.544 172.085C100.544 172.085 169.739 109.675 209.184 74.1013C210.336 73.056 210.496 71.3067 209.536 70.08C208.587 68.8533 206.837 68.5653 205.525 69.3973C159.808 98.592 78.656 150.421 78.656 150.421Z" fill="#26a5e4"/>
        </g>
        <defs>
            <clipPath id="clip0_5_2">
                <rect width="256" height="256" fill="white"/>
            </clipPath>
        </defs>
    </svg>
    <symbol id="icon-dzen" viewBox="0 0 256 256" fill="none">
        <g clip-path="url(#clip0_5_4)">
            <path d="M152.686 152.686C132.571 173.44 131.109 199.314 129.371 256C182.217 256 218.697 255.817 237.531 237.531C255.817 218.697 256 180.48 256 129.371C199.314 131.2 173.44 132.571 152.686 152.686ZM0 129.371C0 180.48 0.182857 218.697 18.4686 237.531C37.3029 255.817 73.7829 256 126.629 256C124.8 199.314 123.429 173.44 103.314 152.686C82.56 132.571 56.6857 131.109 0 129.371ZM126.629 0C73.8743 0 37.3029 0.182857 18.4686 18.4686C0.182857 37.3029 0 75.52 0 126.629C56.6857 124.8 82.56 123.429 103.314 103.314C123.429 82.56 124.891 56.6857 126.629 0ZM152.686 103.314C132.571 82.56 131.109 56.6857 129.371 0C182.217 0 218.697 0.182857 237.531 18.4686C255.817 37.3029 256 75.52 256 126.629C199.314 124.8 173.44 123.429 152.686 103.314Z" fill="#2C3036"/>
            <path d="M256 129.371V126.629C199.314 124.8 173.44 123.429 152.686 103.314C132.571 82.56 131.109 56.6857 129.371 0H126.629C124.8 56.6857 123.429 82.56 103.314 103.314C82.56 123.429 56.6857 124.891 0 126.629V129.371C56.6857 131.2 82.56 132.571 103.314 152.686C123.429 173.44 124.891 199.314 126.629 256H129.371C131.2 199.314 132.571 173.44 152.686 152.686C173.44 132.571 199.314 131.109 256 129.371Z" fill="white"/>
        </g>
        <defs>
            <clipPath id="clip0_5_4">
                <rect width="256" height="256" fill="white"/>
            </clipPath>
        </defs>
    </symbol>

</svg>
